<?xml version="1.0" encoding="utf-8"?>
<!-- Generator: Adobe Illustrator 27.3.1, SVG Export Plug-In . SVG Version: 6.00 Build 0)  -->
<svg version="1.1" id="Primary" xmlns="http://www.w3.org/2000/svg" xmlns:xlink="http://www.w3.org/1999/xlink" x="0px" y="0px"
	 viewBox="0 0 1080 415.4" style="enable-background:new 0 0 1080 415.4;" xml:space="preserve">
<style type="text/css">
	.st0{fill:#AA0095;}
</style>
<g id="Logotype">
	<circle class="st0" cx="373.8" cy="41.5" r="41.5"/>
	<path class="st0" d="M747.7,373.8c0,22.9-18.6,41.5-41.5,41.5h-83.1c-22.9,0-41.5-18.6-41.5-41.5c0-22.9,18.6-41.5,41.5-41.5h83.1
		C729.1,332.3,747.7,350.9,747.7,373.8z"/>
	<circle class="st0" cx="913.8" cy="373.8" r="41.5"/>
	<path class="st0" d="M1038.4,0c-22.9,0-41.5,18.6-41.5,41.5v83.1c0,22.9-18.6,41.5-41.5,41.5h-83.1c-22.9,0-41.5-18.6-41.5-41.5
		V41.5c0-22.9-18.6-41.5-41.5-41.5c-22.9,0-41.5,18.6-41.5,41.5v83.1c0,22.9-18.6,41.5-41.5,41.5h-83.1c-22.9,0-41.5-18.6-41.5-41.5
		V41.5C581.5,18.6,562.9,0,540,0s-41.5,18.6-41.5,41.5v83.1c0,22.9-18.6,41.5-41.5,41.5H290.8c-22.9,0-41.5-18.6-41.5-41.5V41.5
		c0-22.9-18.6-41.5-41.5-41.5H41.5C18.6,0,0,18.6,0,41.5v166.2c0,22.9,18.6,41.5,41.5,41.5h83.1c22.9,0,41.5,18.6,41.5,41.5
		c0,22.9-18.6,41.5-41.5,41.5H41.5C18.6,332.3,0,350.9,0,373.8c0,22.9,18.6,41.5,41.5,41.5h166.2c22.9,0,41.5-18.6,41.5-41.5v-83.1
		c0-22.9,18.6-41.5,41.5-41.5h747.7c22.9,0,41.5-18.6,41.5-41.5V41.5C1080,18.6,1061.4,0,1038.4,0L1038.4,0L1038.4,0z M124.6,166.2
		c-22.9,0-41.5-18.6-41.5-41.5s18.6-41.5,41.5-41.5s41.5,18.6,41.5,41.5S147.5,166.2,124.6,166.2z"/>
</g>
</svg>
