<?xml version="1.0" encoding="UTF-8"?>
<svg id="Primary" xmlns="http://www.w3.org/2000/svg" viewBox="0 0 1080 1080">
  <defs>
    <style>
      .cls-1 {
        fill: #aa0095;
      }
    </style>
  </defs>
  <g id="Logotype">
    <circle class="cls-1" cx="470.79" cy="470.8" r="17.3"/>
    <path class="cls-1" d="m626.49,609.2c0,9.55-7.75,17.3-17.3,17.3h-34.6c-9.55,0-17.3-7.75-17.3-17.3s7.75-17.3,17.3-17.3h34.6c9.55,0,17.3,7.75,17.3,17.3Z"/>
    <circle class="cls-1" cx="695.69" cy="609.2" r="17.3"/>
    <path class="cls-1" d="m747.59,453.5c-9.55,0-17.3,7.75-17.3,17.3v34.6c0,9.55-7.75,17.3-17.3,17.3h-34.6c-9.55,0-17.3-7.75-17.3-17.3v-34.6c0-9.55-7.75-17.3-17.3-17.3s-17.3,7.75-17.3,17.3v34.6c0,9.55-7.75,17.3-17.3,17.3h-34.6c-9.55,0-17.3-7.75-17.3-17.3v-34.6c0-9.55-7.75-17.3-17.3-17.3s-17.3,7.75-17.3,17.3v34.6c0,9.55-7.75,17.3-17.3,17.3h-69.2c-9.55,0-17.3-7.75-17.3-17.3v-34.6c0-9.55-7.75-17.3-17.3-17.3h-69.2c-9.55,0-17.3,7.75-17.3,17.3v69.2c0,9.55,7.75,17.3,17.3,17.3h34.6c9.55,0,17.3,7.75,17.3,17.3s-7.75,17.3-17.3,17.3h-34.6c-9.55,0-17.3,7.75-17.3,17.3s7.75,17.3,17.3,17.3h69.2c9.55,0,17.3-7.75,17.3-17.3v-34.6c0-9.55,7.75-17.3,17.3-17.3h311.41c9.55,0,17.3-7.75,17.3-17.3v-69.2c0-9.55-7.75-17.3-17.3-17.3h-.01Zm-380.61,69.2c-9.55,0-17.3-7.75-17.3-17.3s7.75-17.3,17.3-17.3,17.3,7.75,17.3,17.3-7.75,17.3-17.3,17.3Z"/>
  </g>
</svg>